<?xml version="1.0" encoding="utf-8"?>
<!-- Generator: Adobe Illustrator 27.7.0, SVG Export Plug-In . SVG Version: 6.00 Build 0)  -->
<svg version="1.1" id="Layer_1" xmlns="http://www.w3.org/2000/svg" xmlns:xlink="http://www.w3.org/1999/xlink" x="0px" y="0px"
	 viewBox="0 0 32 32" style="enable-background:new 0 0 32 32;" xml:space="preserve">
<style type="text/css">
	.st0{opacity:0.3;fill:#FFC01F;enable-background:new    ;}
	.st1{opacity:0.3;fill:#0071CD;enable-background:new    ;}
	.st2{opacity:0.6;fill:#FFC01F;enable-background:new    ;}
	.st3{opacity:0.6;fill:#0071CD;enable-background:new    ;}
	.st4{fill:#FFC01F;}
	.st5{fill:#0071CD;}
</style>
<g>
	<path id="yellow-30" class="st0" d="M3.3,32C1.5,32,0,30.5,0,28.7c0-0.9,0.3-1.7,1-2.3L11.3,16L1,5.7C-0.3,4.4-0.3,2.3,1,1
		s3.4-1.3,4.7,0l12.7,12.7c1.3,1.3,1.3,3.4,0,4.7l0,0L5.7,31C5,31.6,4.2,32,3.3,32"/>
	<path id="blue-30" class="st1" d="M24.5,12.2L31,5.6c1.3-1.3,1.3-3.4,0-4.7c0,0,0,0,0,0c-1.3-1.3-3.4-1.2-4.7,0.1l-7.9,7.9l3.3,3.3
		C22.5,13,23.7,13,24.5,12.2 M24.5,19.8c-0.8-0.8-2-0.8-2.8,0l-3.3,3.3l7.9,7.9c1.3,1.3,3.4,1.3,4.7,0c0.1-0.1,0.1-0.1,0.2-0.2
		c1.2-1.3,1-3.3-0.2-4.6L24.5,19.8z"/>
	<path id="yellow-60" class="st2" d="M3.3,32C1.5,32,0,30.5,0,28.7c0-0.9,0.3-1.7,1-2.3L11.3,16L1,5.7C-0.3,4.4-0.3,2.3,1,1
		s3.4-1.3,4.7,0l12.7,12.7c1.3,1.3,1.3,3.4,0,4.7l0,0L5.7,31C5,31.6,4.2,32,3.3,32"/>
	<path id="blue-60" class="st3" d="M24.5,12.2L31,5.6c1.3-1.3,1.3-3.4,0-4.7c0,0,0,0,0,0c-1.3-1.3-3.4-1.2-4.7,0.1l-7.9,7.9l3.3,3.3
		C22.5,13,23.7,13,24.5,12.2 M24.5,19.8c-0.8-0.8-2-0.8-2.8,0l-3.3,3.3l7.9,7.9c1.3,1.3,3.4,1.3,4.7,0c0.1-0.1,0.1-0.1,0.2-0.2
		c1.2-1.3,1-3.3-0.2-4.6L24.5,19.8z"/>
	<path id="yellow-100" class="st4" d="M3.3,32C1.5,32,0,30.5,0,28.7c0-0.9,0.3-1.7,1-2.3L11.3,16L1,5.7C-0.3,4.4-0.3,2.3,1,1
		s3.4-1.3,4.7,0l12.7,12.7c1.3,1.3,1.3,3.4,0,4.7l0,0L5.7,31C5,31.6,4.2,32,3.3,32"/>
	<path id="blue-100" class="st5" d="M24.5,12.2L31,5.6c1.3-1.3,1.3-3.4,0-4.7c0,0,0,0,0,0c-1.3-1.3-3.4-1.2-4.7,0.1l-7.9,7.9
		l3.3,3.3C22.5,13,23.7,13,24.5,12.2 M24.5,19.8c-0.8-0.8-2-0.8-2.8,0l-3.3,3.3l7.9,7.9c1.3,1.3,3.4,1.3,4.7,0
		c0.1-0.1,0.1-0.1,0.2-0.2c1.2-1.3,1-3.3-0.2-4.6L24.5,19.8z"/>
</g>
</svg>
